<svg xmlns="http://www.w3.org/2000/svg" xmlns:xlink="http://www.w3.org/1999/xlink" width="800" zoomAndPan="magnify" viewBox="0 0 600 599.999999" height="800" preserveAspectRatio="xMidYMid meet" version="1.0"><defs><g/><clipPath id="10a93a79a7"><path d="M 34.425781 34.425781 L 565.574219 34.425781 L 565.574219 565.574219 L 34.425781 565.574219 Z M 34.425781 34.425781 " clip-rule="nonzero"/></clipPath><clipPath id="b20334df7a"><path d="M 33.523438 33.523438 L 566.46875 33.523438 L 566.46875 566.46875 L 33.523438 566.46875 Z M 33.523438 33.523438 " clip-rule="nonzero"/></clipPath></defs><g clip-path="url(#10a93a79a7)"><path fill="#000000" d="M 566.773438 566.773438 L 33.523438 566.773438 L 33.523438 33.523438 L 566.773438 33.523438 Z M 36.914062 563.382812 L 563.382812 563.382812 L 563.382812 36.914062 L 36.914062 36.914062 Z M 36.914062 563.382812 " fill-opacity="1" fill-rule="nonzero"/></g><g clip-path="url(#b20334df7a)"><path stroke-linecap="butt" transform="matrix(0.75, 0, 0, 0.75, 33.524801, 33.524821)" fill="none" stroke-linejoin="miter" d="M -0.00181815 -0.00184441 L -0.00181815 710.591936 L 710.591962 710.591936 L 710.591962 -0.00184441 L -0.00181815 -0.00184441 " stroke="#000000" stroke-width="28" stroke-opacity="1" stroke-miterlimit="4"/></g><g fill="#000000" fill-opacity="1"><g transform="translate(68.418307, 282.750008)"><g><path d="M 8.375 0 L 1.703125 -108.21875 L 21.703125 -108.21875 L 24.8125 -43.40625 L 25.734375 -22.9375 L 27.125 -22.9375 L 36.4375 -84.640625 L 57.359375 -84.640625 L 66.65625 -22.9375 L 68.0625 -22.9375 L 68.984375 -42.78125 L 72.09375 -108.21875 L 91.3125 -108.21875 L 84.640625 0 L 55.1875 0 L 47.28125 -59.6875 L 45.734375 -59.6875 L 37.828125 0 Z M 8.375 0 "/></g></g></g><g fill="#000000" fill-opacity="1"><g transform="translate(161.434737, 282.750008)"><g><path d="M 60.15625 -45.265625 L 32.859375 -45.265625 L 32.859375 0 L 9.453125 0 L 9.453125 -108.21875 L 32.859375 -108.21875 L 32.859375 -64.34375 L 60.15625 -64.34375 L 60.15625 -108.21875 L 83.5625 -108.21875 L 83.5625 0 L 60.15625 0 Z M 60.15625 -45.265625 "/></g></g></g><g fill="#000000" fill-opacity="1"><g transform="translate(254.451167, 282.750008)"><g><path d="M 11.625 0 L 11.625 -17.203125 L 34.875 -17.203125 L 34.875 -91 L 11.625 -91 L 11.625 -108.21875 L 81.390625 -108.21875 L 81.390625 -91 L 58.140625 -91 L 58.140625 -17.203125 L 81.390625 -17.203125 L 81.390625 0 Z M 11.625 0 "/></g></g></g><g fill="#000000" fill-opacity="1"><g transform="translate(347.467597, 282.750008)"><g><path d="M 14.265625 0 L 14.265625 -108.21875 L 37.671875 -108.21875 L 37.671875 -19.0625 L 84.1875 -19.0625 L 84.1875 0 Z M 14.265625 0 "/></g></g></g><g fill="#000000" fill-opacity="1"><g transform="translate(440.484027, 282.750008)"><g><path d="M 12.40625 0 L 12.40625 -108.21875 L 81.546875 -108.21875 L 81.546875 -89.140625 L 35.65625 -89.140625 L 35.65625 -64.34375 L 80 -64.34375 L 80 -45.265625 L 35.65625 -45.265625 L 35.65625 -19.0625 L 81.546875 -19.0625 L 81.546875 0 Z M 12.40625 0 "/></g></g></g><g fill="#000000" fill-opacity="1"><g transform="translate(68.418307, 432.750002)"><g><path d="M 11.9375 -108.21875 L 49.921875 -108.21875 C 60.566406 -108.21875 68.703125 -105.628906 74.328125 -100.453125 C 79.960938 -95.285156 82.78125 -88.257812 82.78125 -79.375 C 82.78125 -73.175781 81.253906 -68.238281 78.203125 -64.5625 C 75.160156 -60.894531 70.796875 -58.238281 65.109375 -56.59375 L 65.109375 -55.65625 C 71.828125 -54 77.019531 -51.101562 80.6875 -46.96875 C 84.363281 -42.832031 86.203125 -37.097656 86.203125 -29.765625 C 86.203125 -20.671875 83.332031 -13.4375 77.59375 -8.0625 C 71.851562 -2.6875 63.816406 0 53.484375 0 L 11.9375 0 Z M 46.359375 -16.28125 C 51.929688 -16.28125 56.007812 -17.207031 58.59375 -19.0625 C 61.1875 -20.925781 62.484375 -24.335938 62.484375 -29.296875 L 62.484375 -33.796875 C 62.484375 -38.753906 61.1875 -42.160156 58.59375 -44.015625 C 56.007812 -45.878906 51.929688 -46.8125 46.359375 -46.8125 L 34.578125 -46.8125 L 34.578125 -16.28125 Z M 43.40625 -62.328125 C 48.882812 -62.328125 52.863281 -63.226562 55.34375 -65.03125 C 57.820312 -66.84375 59.0625 -70.125 59.0625 -74.875 L 59.0625 -79.53125 C 59.0625 -84.28125 57.820312 -87.535156 55.34375 -89.296875 C 52.863281 -91.054688 48.882812 -91.9375 43.40625 -91.9375 L 34.578125 -91.9375 L 34.578125 -62.328125 Z M 43.40625 -62.328125 "/></g></g></g><g fill="#000000" fill-opacity="1"><g transform="translate(161.434737, 432.750002)"><g><path d="M 46.515625 1.859375 C 32.046875 1.859375 21.375 -3.046875 14.5 -12.859375 C 7.625 -22.679688 4.1875 -36.429688 4.1875 -54.109375 C 4.1875 -71.773438 7.625 -85.519531 14.5 -95.34375 C 21.375 -105.164062 32.046875 -110.078125 46.515625 -110.078125 C 60.984375 -110.078125 71.648438 -105.164062 78.515625 -95.34375 C 85.390625 -85.519531 88.828125 -71.773438 88.828125 -54.109375 C 88.828125 -36.429688 85.390625 -22.679688 78.515625 -12.859375 C 71.648438 -3.046875 60.984375 1.859375 46.515625 1.859375 Z M 46.515625 -16.890625 C 53.128906 -16.890625 57.703125 -19.34375 60.234375 -24.25 C 62.765625 -29.164062 64.03125 -36.015625 64.03125 -44.796875 L 64.03125 -63.5625 C 64.03125 -72.238281 62.765625 -79.03125 60.234375 -83.9375 C 57.703125 -88.851562 53.128906 -91.3125 46.515625 -91.3125 C 39.898438 -91.3125 35.320312 -88.851562 32.78125 -83.9375 C 30.25 -79.03125 28.984375 -72.238281 28.984375 -63.5625 L 28.984375 -44.65625 C 28.984375 -35.96875 30.25 -29.164062 32.78125 -24.25 C 35.320312 -19.34375 39.898438 -16.890625 46.515625 -16.890625 Z M 46.515625 -16.890625 "/></g></g></g><g fill="#000000" fill-opacity="1"><g transform="translate(254.451167, 432.750002)"><g><path d="M 34.734375 0 L 11.78125 0 L 11.78125 -108.21875 L 53.640625 -108.21875 C 58.910156 -108.21875 63.613281 -107.414062 67.75 -105.8125 C 71.882812 -104.207031 75.375 -101.90625 78.21875 -98.90625 C 81.0625 -95.90625 83.203125 -92.285156 84.640625 -88.046875 C 86.085938 -83.816406 86.8125 -79.066406 86.8125 -73.796875 C 86.8125 -66.148438 85.15625 -59.585938 81.84375 -54.109375 C 78.539062 -48.628906 73.84375 -45.007812 67.75 -43.25 L 88.984375 0 L 63.5625 0 L 45.421875 -40.15625 L 34.734375 -40.15625 Z M 48.0625 -58.140625 C 53.539062 -58.140625 57.335938 -59.171875 59.453125 -61.234375 C 61.566406 -63.304688 62.625 -66.71875 62.625 -71.46875 L 62.625 -76.125 C 62.625 -80.875 61.566406 -84.28125 59.453125 -86.34375 C 57.335938 -88.414062 53.539062 -89.453125 48.0625 -89.453125 L 34.734375 -89.453125 L 34.734375 -58.140625 Z M 48.0625 -58.140625 "/></g></g></g><g fill="#000000" fill-opacity="1"><g transform="translate(347.467597, 432.750002)"><g><path d="M 12.40625 0 L 12.40625 -108.21875 L 81.546875 -108.21875 L 81.546875 -89.140625 L 35.65625 -89.140625 L 35.65625 -64.34375 L 80 -64.34375 L 80 -45.265625 L 35.65625 -45.265625 L 35.65625 -19.0625 L 81.546875 -19.0625 L 81.546875 0 Z M 12.40625 0 "/></g></g></g><g fill="#000000" fill-opacity="1"><g transform="translate(440.484027, 432.750002)"><g><path d="M 9.921875 -108.21875 L 44.796875 -108.21875 C 59.367188 -108.21875 70.171875 -103.566406 77.203125 -94.265625 C 84.234375 -84.960938 87.75 -71.578125 87.75 -54.109375 C 87.75 -36.640625 84.234375 -23.253906 77.203125 -13.953125 C 70.171875 -4.648438 59.367188 0 44.796875 0 L 9.921875 0 Z M 43.25 -18.296875 C 50.175781 -18.296875 55.238281 -20.515625 58.4375 -24.953125 C 61.644531 -29.398438 63.25 -35.863281 63.25 -44.34375 L 63.25 -64.03125 C 63.25 -72.394531 61.644531 -78.800781 58.4375 -83.25 C 55.238281 -87.695312 50.175781 -89.921875 43.25 -89.921875 L 32.859375 -89.921875 L 32.859375 -18.296875 Z M 43.25 -18.296875 "/></g></g></g></svg>