<svg xmlns="http://www.w3.org/2000/svg" xmlns:xlink="http://www.w3.org/1999/xlink" width="800" zoomAndPan="magnify" viewBox="0 0 600 599.999999" height="800" preserveAspectRatio="xMidYMid meet" version="1.0"><defs><g/><clipPath id="4dbe1a9ca0"><path d="M 34.425781 34.425781 L 565.574219 34.425781 L 565.574219 565.574219 L 34.425781 565.574219 Z M 34.425781 34.425781 " clip-rule="nonzero"/></clipPath><clipPath id="7c01b45698"><path d="M 33.523438 33.523438 L 566.46875 33.523438 L 566.46875 566.46875 L 33.523438 566.46875 Z M 33.523438 33.523438 " clip-rule="nonzero"/></clipPath></defs><g clip-path="url(#4dbe1a9ca0)"><path fill="#000000" d="M 566.773438 566.773438 L 33.523438 566.773438 L 33.523438 33.523438 L 566.773438 33.523438 Z M 36.914062 563.382812 L 563.382812 563.382812 L 563.382812 36.914062 L 36.914062 36.914062 Z M 36.914062 563.382812 " fill-opacity="1" fill-rule="nonzero"/></g><g clip-path="url(#7c01b45698)"><path stroke-linecap="butt" transform="matrix(0.75, 0, 0, 0.75, 33.524801, 33.524821)" fill="none" stroke-linejoin="miter" d="M -0.00181815 -0.00184441 L -0.00181815 710.591936 L 710.591962 710.591936 L 710.591962 -0.00184441 L -0.00181815 -0.00184441 " stroke="#000000" stroke-width="28" stroke-opacity="1" stroke-miterlimit="4"/></g><g fill="#000000" fill-opacity="1"><g transform="translate(68.418307, 282.750008)"><g><path d="M 1.078125 -80 L 20.15625 -80 L 25.890625 -15.1875 L 27.4375 -15.1875 L 36.890625 -80 L 57.046875 -80 L 66.359375 -15.1875 L 67.90625 -15.1875 L 73.796875 -80 L 91.9375 -80 L 82.484375 0 L 55.1875 0 L 47.28125 -55.1875 L 45.734375 -55.1875 L 37.828125 0 L 10.546875 0 Z M 1.078125 -80 "/></g></g></g><g fill="#000000" fill-opacity="1"><g transform="translate(161.434737, 282.750008)"><g><path d="M 10.078125 -114.71875 L 33.015625 -114.71875 L 33.015625 -65.421875 L 33.953125 -65.421875 C 34.878906 -67.691406 36.015625 -69.804688 37.359375 -71.765625 C 38.703125 -73.734375 40.328125 -75.46875 42.234375 -76.96875 C 44.148438 -78.46875 46.375 -79.65625 48.90625 -80.53125 C 51.4375 -81.414062 54.304688 -81.859375 57.515625 -81.859375 C 61.335938 -81.859375 64.847656 -81.210938 68.046875 -79.921875 C 71.253906 -78.628906 73.992188 -76.691406 76.265625 -74.109375 C 78.546875 -71.523438 80.332031 -68.367188 81.625 -64.640625 C 82.914062 -60.921875 83.5625 -56.632812 83.5625 -51.78125 L 83.5625 0 L 60.625 0 L 60.625 -48.6875 C 60.625 -59.019531 56.125 -64.1875 47.125 -64.1875 C 45.375 -64.1875 43.644531 -63.953125 41.9375 -63.484375 C 40.226562 -63.015625 38.703125 -62.289062 37.359375 -61.3125 C 36.015625 -60.332031 34.953125 -59.117188 34.171875 -57.671875 C 33.398438 -56.222656 33.015625 -54.519531 33.015625 -52.5625 L 33.015625 0 L 10.078125 0 Z M 10.078125 -114.71875 "/></g></g></g><g fill="#000000" fill-opacity="1"><g transform="translate(254.451167, 282.750008)"><g><path d="M 51.46875 -90.234375 C 46.300781 -90.234375 42.707031 -91.289062 40.6875 -93.40625 C 38.675781 -95.519531 37.671875 -98.078125 37.671875 -101.078125 L 37.671875 -105.578125 C 37.671875 -108.679688 38.675781 -111.265625 40.6875 -113.328125 C 42.707031 -115.390625 46.300781 -116.421875 51.46875 -116.421875 C 56.632812 -116.421875 60.222656 -115.390625 62.234375 -113.328125 C 64.253906 -111.265625 65.265625 -108.679688 65.265625 -105.578125 L 65.265625 -101.078125 C 65.265625 -98.078125 64.253906 -95.519531 62.234375 -93.40625 C 60.222656 -91.289062 56.632812 -90.234375 51.46875 -90.234375 Z M 14.578125 -17.828125 L 40 -17.828125 L 40 -62.171875 L 14.578125 -62.171875 L 14.578125 -80 L 62.9375 -80 L 62.9375 -17.828125 L 86.5 -17.828125 L 86.5 0 L 14.578125 0 Z M 14.578125 -17.828125 "/></g></g></g><g fill="#000000" fill-opacity="1"><g transform="translate(347.467597, 282.750008)"><g><path d="M 10.546875 -17.828125 L 35.03125 -17.828125 L 35.03125 -96.890625 L 10.546875 -96.890625 L 10.546875 -114.71875 L 57.984375 -114.71875 L 57.984375 -17.828125 L 82.484375 -17.828125 L 82.484375 0 L 10.546875 0 Z M 10.546875 -17.828125 "/></g></g></g><g fill="#000000" fill-opacity="1"><g transform="translate(440.484027, 282.750008)"><g><path d="M 48.6875 1.859375 C 35.25 1.859375 25.066406 -1.859375 18.140625 -9.296875 C 11.210938 -16.742188 7.75 -26.875 7.75 -39.6875 C 7.75 -46.195312 8.648438 -52.0625 10.453125 -57.28125 C 12.265625 -62.5 14.847656 -66.941406 18.203125 -70.609375 C 21.566406 -74.285156 25.648438 -77.078125 30.453125 -78.984375 C 35.265625 -80.898438 40.671875 -81.859375 46.671875 -81.859375 C 52.660156 -81.859375 58.03125 -80.898438 62.78125 -78.984375 C 67.539062 -77.078125 71.570312 -74.363281 74.875 -70.84375 C 78.1875 -67.332031 80.742188 -63.070312 82.546875 -58.0625 C 84.359375 -53.050781 85.265625 -47.441406 85.265625 -41.234375 L 85.265625 -34.421875 L 30.546875 -34.421875 L 30.546875 -33.015625 C 30.546875 -27.847656 32.144531 -23.6875 35.34375 -20.53125 C 38.550781 -17.382812 43.253906 -15.8125 49.453125 -15.8125 C 54.210938 -15.8125 58.296875 -16.710938 61.703125 -18.515625 C 65.109375 -20.328125 68.054688 -22.734375 70.546875 -25.734375 L 82.9375 -12.25 C 79.84375 -8.425781 75.503906 -5.117188 69.921875 -2.328125 C 64.335938 0.460938 57.257812 1.859375 48.6875 1.859375 Z M 46.8125 -65.421875 C 41.851562 -65.421875 37.898438 -63.894531 34.953125 -60.84375 C 32.015625 -57.800781 30.546875 -53.695312 30.546875 -48.53125 L 30.546875 -47.28125 L 62.78125 -47.28125 L 62.78125 -48.53125 C 62.78125 -53.800781 61.359375 -57.929688 58.515625 -60.921875 C 55.679688 -63.921875 51.78125 -65.421875 46.8125 -65.421875 Z M 46.8125 -65.421875 "/></g></g></g><g fill="#000000" fill-opacity="1"><g transform="translate(68.418307, 432.750002)"><g><path d="M 9.140625 -114.71875 L 32.09375 -114.71875 L 32.09375 -65.421875 L 33.171875 -65.421875 C 35.140625 -70.171875 37.984375 -74.097656 41.703125 -77.203125 C 45.421875 -80.304688 50.484375 -81.859375 56.890625 -81.859375 C 61.335938 -81.859375 65.394531 -81.03125 69.0625 -79.375 C 72.726562 -77.71875 75.878906 -75.179688 78.515625 -71.765625 C 81.160156 -68.359375 83.226562 -64.019531 84.71875 -58.75 C 86.21875 -53.476562 86.96875 -47.226562 86.96875 -40 C 86.96875 -32.757812 86.21875 -26.503906 84.71875 -21.234375 C 83.226562 -15.960938 81.160156 -11.617188 78.515625 -8.203125 C 75.878906 -4.796875 72.726562 -2.265625 69.0625 -0.609375 C 65.394531 1.035156 61.335938 1.859375 56.890625 1.859375 C 50.484375 1.859375 45.421875 0.335938 41.703125 -2.703125 C 37.984375 -5.753906 35.140625 -9.710938 33.171875 -14.578125 L 32.09375 -14.578125 L 32.09375 0 L 9.140625 0 Z M 46.96875 -15.96875 C 52.132812 -15.96875 56.113281 -17.539062 58.90625 -20.6875 C 61.695312 -23.84375 63.09375 -28.210938 63.09375 -33.796875 L 63.09375 -46.203125 C 63.09375 -51.785156 61.695312 -56.148438 58.90625 -59.296875 C 56.113281 -62.453125 52.132812 -64.03125 46.96875 -64.03125 C 42.9375 -64.03125 39.445312 -63.046875 36.5 -61.078125 C 33.5625 -59.117188 32.09375 -56.019531 32.09375 -51.78125 L 32.09375 -28.21875 C 32.09375 -23.976562 33.5625 -20.875 36.5 -18.90625 C 39.445312 -16.945312 42.9375 -15.96875 46.96875 -15.96875 Z M 46.96875 -15.96875 "/></g></g></g><g fill="#000000" fill-opacity="1"><g transform="translate(161.434737, 432.750002)"><g><path d="M 46.515625 1.859375 C 40.304688 1.859375 34.722656 0.90625 29.765625 -1 C 24.804688 -2.914062 20.59375 -5.679688 17.125 -9.296875 C 13.664062 -12.921875 11.003906 -17.316406 9.140625 -22.484375 C 7.285156 -27.648438 6.359375 -33.488281 6.359375 -40 C 6.359375 -46.507812 7.285156 -52.347656 9.140625 -57.515625 C 11.003906 -62.679688 13.664062 -67.070312 17.125 -70.6875 C 20.59375 -74.3125 24.804688 -77.078125 29.765625 -78.984375 C 34.722656 -80.898438 40.304688 -81.859375 46.515625 -81.859375 C 52.710938 -81.859375 58.289062 -80.898438 63.25 -78.984375 C 68.207031 -77.078125 72.414062 -74.3125 75.875 -70.6875 C 79.34375 -67.070312 82.003906 -62.679688 83.859375 -57.515625 C 85.722656 -52.347656 86.65625 -46.507812 86.65625 -40 C 86.65625 -33.488281 85.722656 -27.648438 83.859375 -22.484375 C 82.003906 -17.316406 79.34375 -12.921875 75.875 -9.296875 C 72.414062 -5.679688 68.207031 -2.914062 63.25 -1 C 58.289062 0.90625 52.710938 1.859375 46.515625 1.859375 Z M 46.515625 -15.1875 C 51.679688 -15.1875 55.707031 -16.789062 58.59375 -20 C 61.488281 -23.207031 62.9375 -27.753906 62.9375 -33.640625 L 62.9375 -46.359375 C 62.9375 -52.242188 61.488281 -56.785156 58.59375 -59.984375 C 55.707031 -63.191406 51.679688 -64.796875 46.515625 -64.796875 C 41.335938 -64.796875 37.300781 -63.191406 34.40625 -59.984375 C 31.519531 -56.785156 30.078125 -52.242188 30.078125 -46.359375 L 30.078125 -33.640625 C 30.078125 -27.753906 31.519531 -23.207031 34.40625 -20 C 37.300781 -16.789062 41.335938 -15.1875 46.515625 -15.1875 Z M 46.515625 -15.1875 "/></g></g></g><g fill="#000000" fill-opacity="1"><g transform="translate(254.451167, 432.750002)"><g><path d="M 11.46875 -17.828125 L 29.921875 -17.828125 L 29.921875 -62.171875 L 11.46875 -62.171875 L 11.46875 -80 L 52.859375 -80 L 52.859375 -57.359375 L 53.953125 -57.359375 C 54.671875 -60.253906 55.675781 -63.070312 56.96875 -65.8125 C 58.257812 -68.550781 59.910156 -70.976562 61.921875 -73.09375 C 63.941406 -75.21875 66.398438 -76.898438 69.296875 -78.140625 C 72.191406 -79.378906 75.601562 -80 79.53125 -80 L 87.125 -80 L 87.125 -58.90625 L 70.078125 -58.90625 C 64.390625 -58.90625 60.097656 -57.222656 57.203125 -53.859375 C 54.304688 -50.503906 52.859375 -46.398438 52.859375 -41.546875 L 52.859375 -17.828125 L 79.21875 -17.828125 L 79.21875 0 L 11.46875 0 Z M 11.46875 -17.828125 "/></g></g></g><g fill="#000000" fill-opacity="1"><g transform="translate(347.467597, 432.750002)"><g><path d="M 48.6875 1.859375 C 35.25 1.859375 25.066406 -1.859375 18.140625 -9.296875 C 11.210938 -16.742188 7.75 -26.875 7.75 -39.6875 C 7.75 -46.195312 8.648438 -52.0625 10.453125 -57.28125 C 12.265625 -62.5 14.847656 -66.941406 18.203125 -70.609375 C 21.566406 -74.285156 25.648438 -77.078125 30.453125 -78.984375 C 35.265625 -80.898438 40.671875 -81.859375 46.671875 -81.859375 C 52.660156 -81.859375 58.03125 -80.898438 62.78125 -78.984375 C 67.539062 -77.078125 71.570312 -74.363281 74.875 -70.84375 C 78.1875 -67.332031 80.742188 -63.070312 82.546875 -58.0625 C 84.359375 -53.050781 85.265625 -47.441406 85.265625 -41.234375 L 85.265625 -34.421875 L 30.546875 -34.421875 L 30.546875 -33.015625 C 30.546875 -27.847656 32.144531 -23.6875 35.34375 -20.53125 C 38.550781 -17.382812 43.253906 -15.8125 49.453125 -15.8125 C 54.210938 -15.8125 58.296875 -16.710938 61.703125 -18.515625 C 65.109375 -20.328125 68.054688 -22.734375 70.546875 -25.734375 L 82.9375 -12.25 C 79.84375 -8.425781 75.503906 -5.117188 69.921875 -2.328125 C 64.335938 0.460938 57.257812 1.859375 48.6875 1.859375 Z M 46.8125 -65.421875 C 41.851562 -65.421875 37.898438 -63.894531 34.953125 -60.84375 C 32.015625 -57.800781 30.546875 -53.695312 30.546875 -48.53125 L 30.546875 -47.28125 L 62.78125 -47.28125 L 62.78125 -48.53125 C 62.78125 -53.800781 61.359375 -57.929688 58.515625 -60.921875 C 55.679688 -63.921875 51.78125 -65.421875 46.8125 -65.421875 Z M 46.8125 -65.421875 "/></g></g></g><g fill="#000000" fill-opacity="1"><g transform="translate(440.484027, 432.750002)"><g><path d="M 60.921875 -14.578125 L 59.84375 -14.578125 C 57.769531 -9.710938 54.898438 -5.753906 51.234375 -2.703125 C 47.566406 0.335938 42.53125 1.859375 36.125 1.859375 C 31.675781 1.859375 27.617188 1.035156 23.953125 -0.609375 C 20.285156 -2.265625 17.132812 -4.796875 14.5 -8.203125 C 11.863281 -11.617188 9.796875 -15.960938 8.296875 -21.234375 C 6.796875 -26.503906 6.046875 -32.757812 6.046875 -40 C 6.046875 -47.226562 6.796875 -53.476562 8.296875 -58.75 C 9.796875 -64.019531 11.863281 -68.359375 14.5 -71.765625 C 17.132812 -75.179688 20.285156 -77.71875 23.953125 -79.375 C 27.617188 -81.03125 31.675781 -81.859375 36.125 -81.859375 C 39.320312 -81.859375 42.160156 -81.441406 44.640625 -80.609375 C 47.128906 -79.785156 49.328125 -78.648438 51.234375 -77.203125 C 53.148438 -75.753906 54.804688 -74.019531 56.203125 -72 C 57.597656 -69.988281 58.8125 -67.796875 59.84375 -65.421875 L 60.921875 -65.421875 L 60.921875 -114.71875 L 83.875 -114.71875 L 83.875 0 L 60.921875 0 Z M 46.046875 -15.96875 C 50.078125 -15.96875 53.5625 -16.945312 56.5 -18.90625 C 59.445312 -20.875 60.921875 -23.976562 60.921875 -28.21875 L 60.921875 -51.78125 C 60.921875 -56.019531 59.445312 -59.117188 56.5 -61.078125 C 53.5625 -63.046875 50.078125 -64.03125 46.046875 -64.03125 C 40.878906 -64.03125 36.898438 -62.453125 34.109375 -59.296875 C 31.316406 -56.148438 29.921875 -51.785156 29.921875 -46.203125 L 29.921875 -33.796875 C 29.921875 -28.210938 31.316406 -23.84375 34.109375 -20.6875 C 36.898438 -17.539062 40.878906 -15.96875 46.046875 -15.96875 Z M 46.046875 -15.96875 "/></g></g></g></svg>