<svg xmlns="http://www.w3.org/2000/svg" xmlns:xlink="http://www.w3.org/1999/xlink" width="800" zoomAndPan="magnify" viewBox="0 0 600 599.999999" height="800" preserveAspectRatio="xMidYMid meet" version="1.0"><defs><g/><clipPath id="0e50d751e3"><path d="M 34.425781 34.425781 L 565.574219 34.425781 L 565.574219 565.574219 L 34.425781 565.574219 Z M 34.425781 34.425781 " clip-rule="nonzero"/></clipPath><clipPath id="16c9e59d53"><path d="M 33.523438 33.523438 L 566.46875 33.523438 L 566.46875 566.46875 L 33.523438 566.46875 Z M 33.523438 33.523438 " clip-rule="nonzero"/></clipPath></defs><g clip-path="url(#0e50d751e3)"><path fill="#000000" d="M 566.773438 566.773438 L 33.523438 566.773438 L 33.523438 33.523438 L 566.773438 33.523438 Z M 36.914062 563.382812 L 563.382812 563.382812 L 563.382812 36.914062 L 36.914062 36.914062 Z M 36.914062 563.382812 " fill-opacity="1" fill-rule="nonzero"/></g><g clip-path="url(#16c9e59d53)"><path stroke-linecap="butt" transform="matrix(0.75, 0, 0, 0.75, 33.524801, 33.524784)" fill="none" stroke-linejoin="miter" d="M -0.00181815 -0.00179545 L -0.00181815 710.591985 L 710.591962 710.591985 L 710.591962 -0.00179545 L -0.00181815 -0.00179545 " stroke="#ffffff" stroke-width="28" stroke-opacity="1" stroke-miterlimit="4"/></g><g fill="#ffffff" fill-opacity="1"><g transform="translate(66.484713, 241.034717)"><g><path d="M 0.90625 -66.578125 L 16.78125 -66.578125 L 21.546875 -12.640625 L 22.84375 -12.640625 L 30.703125 -66.578125 L 47.484375 -66.578125 L 55.21875 -12.640625 L 56.515625 -12.640625 L 61.421875 -66.578125 L 76.515625 -66.578125 L 68.640625 0 L 45.9375 0 L 39.359375 -45.9375 L 38.0625 -45.9375 L 31.484375 0 L 8.78125 0 Z M 0.90625 -66.578125 "/></g></g></g><g fill="#ffffff" fill-opacity="1"><g transform="translate(143.905811, 241.034717)"><g><path d="M 8.390625 -95.484375 L 27.484375 -95.484375 L 27.484375 -54.453125 L 28.265625 -54.453125 C 29.035156 -56.347656 29.976562 -58.109375 31.09375 -59.734375 C 32.21875 -61.367188 33.570312 -62.8125 35.15625 -64.0625 C 36.75 -65.3125 38.597656 -66.300781 40.703125 -67.03125 C 42.816406 -67.757812 45.207031 -68.125 47.875 -68.125 C 51.050781 -68.125 53.972656 -67.585938 56.640625 -66.515625 C 59.304688 -65.441406 61.585938 -63.828125 63.484375 -61.671875 C 65.378906 -59.523438 66.863281 -56.898438 67.9375 -53.796875 C 69.007812 -50.703125 69.546875 -47.132812 69.546875 -43.09375 L 69.546875 0 L 50.453125 0 L 50.453125 -40.515625 C 50.453125 -49.117188 46.707031 -53.421875 39.21875 -53.421875 C 37.757812 -53.421875 36.320312 -53.222656 34.90625 -52.828125 C 33.488281 -52.441406 32.21875 -51.84375 31.09375 -51.03125 C 29.976562 -50.21875 29.097656 -49.207031 28.453125 -48 C 27.804688 -46.789062 27.484375 -45.367188 27.484375 -43.734375 L 27.484375 0 L 8.390625 0 Z M 8.390625 -95.484375 "/></g></g></g><g fill="#ffffff" fill-opacity="1"><g transform="translate(221.326908, 241.034717)"><g><path d="M 42.84375 -75.09375 C 38.539062 -75.09375 35.550781 -75.972656 33.875 -77.734375 C 32.195312 -79.503906 31.359375 -81.632812 31.359375 -84.125 L 31.359375 -87.875 C 31.359375 -90.445312 32.195312 -92.59375 33.875 -94.3125 C 35.550781 -96.039062 38.539062 -96.90625 42.84375 -96.90625 C 47.144531 -96.90625 50.132812 -96.039062 51.8125 -94.3125 C 53.488281 -92.59375 54.328125 -90.445312 54.328125 -87.875 L 54.328125 -84.125 C 54.328125 -81.632812 53.488281 -79.503906 51.8125 -77.734375 C 50.132812 -75.972656 47.144531 -75.09375 42.84375 -75.09375 Z M 12.125 -14.84375 L 33.296875 -14.84375 L 33.296875 -51.734375 L 12.125 -51.734375 L 12.125 -66.578125 L 52.390625 -66.578125 L 52.390625 -14.84375 L 72 -14.84375 L 72 0 L 12.125 0 Z M 12.125 -14.84375 "/></g></g></g><g fill="#ffffff" fill-opacity="1"><g transform="translate(298.747994, 241.034717)"><g><path d="M 8.78125 -14.84375 L 29.15625 -14.84375 L 29.15625 -80.640625 L 8.78125 -80.640625 L 8.78125 -95.484375 L 48.25 -95.484375 L 48.25 -14.84375 L 68.640625 -14.84375 L 68.640625 0 L 8.78125 0 Z M 8.78125 -14.84375 "/></g></g></g><g fill="#ffffff" fill-opacity="1"><g transform="translate(376.169102, 241.034717)"><g><path d="M 40.515625 1.546875 C 29.328125 1.546875 20.851562 -1.546875 15.09375 -7.734375 C 9.332031 -13.929688 6.453125 -22.363281 6.453125 -33.03125 C 6.453125 -38.445312 7.203125 -43.328125 8.703125 -47.671875 C 10.210938 -52.015625 12.363281 -55.710938 15.15625 -58.765625 C 17.957031 -61.828125 21.359375 -64.148438 25.359375 -65.734375 C 29.359375 -67.328125 33.851562 -68.125 38.84375 -68.125 C 43.832031 -68.125 48.300781 -67.328125 52.25 -65.734375 C 56.207031 -64.148438 59.5625 -61.894531 62.3125 -58.96875 C 65.070312 -56.039062 67.203125 -52.488281 68.703125 -48.3125 C 70.210938 -44.144531 70.96875 -39.484375 70.96875 -34.328125 L 70.96875 -28.640625 L 25.421875 -28.640625 L 25.421875 -27.484375 C 25.421875 -23.179688 26.753906 -19.71875 29.421875 -17.09375 C 32.085938 -14.46875 36 -13.15625 41.15625 -13.15625 C 45.113281 -13.15625 48.507812 -13.90625 51.34375 -15.40625 C 54.1875 -16.914062 56.640625 -18.921875 58.703125 -21.421875 L 69.03125 -10.1875 C 66.445312 -7.007812 62.832031 -4.257812 58.1875 -1.9375 C 53.539062 0.382812 47.648438 1.546875 40.515625 1.546875 Z M 38.96875 -54.453125 C 34.84375 -54.453125 31.550781 -53.179688 29.09375 -50.640625 C 26.644531 -48.109375 25.421875 -44.691406 25.421875 -40.390625 L 25.421875 -39.359375 L 52.25 -39.359375 L 52.25 -40.390625 C 52.25 -44.773438 51.066406 -48.210938 48.703125 -50.703125 C 46.335938 -53.203125 43.09375 -54.453125 38.96875 -54.453125 Z M 38.96875 -54.453125 "/></g></g></g><g fill="#ffffff" fill-opacity="1"><g transform="translate(66.484713, 351.284712)"><g><path d="M 19.328125 -34.53125 C 19.328125 -39.9375 19.9375 -45.140625 21.15625 -50.140625 C 22.375 -55.140625 24.035156 -59.785156 26.140625 -64.078125 C 28.253906 -68.367188 30.71875 -72.234375 33.53125 -75.671875 C 36.34375 -79.117188 39.304688 -82.023438 42.421875 -84.390625 L 58.859375 -84.390625 C 55.378906 -82.023438 52.082031 -79.269531 48.96875 -76.125 C 45.863281 -72.976562 43.144531 -69.515625 40.8125 -65.734375 C 38.476562 -61.960938 36.609375 -57.925781 35.203125 -53.625 C 33.796875 -49.332031 33.09375 -44.859375 33.09375 -40.203125 L 33.09375 -28.875 C 33.09375 -24.207031 33.796875 -19.726562 35.203125 -15.4375 C 36.609375 -11.144531 38.476562 -7.109375 40.8125 -3.328125 C 43.144531 0.441406 45.863281 3.898438 48.96875 7.046875 C 52.082031 10.191406 55.378906 12.953125 58.859375 15.328125 L 42.421875 15.328125 C 39.304688 13.023438 36.34375 10.132812 33.53125 6.65625 C 30.71875 3.175781 28.253906 -0.707031 26.140625 -5 C 24.035156 -9.289062 22.375 -13.929688 21.15625 -18.921875 C 19.9375 -23.921875 19.328125 -29.125 19.328125 -34.53125 Z M 19.328125 -34.53125 "/></g></g></g><g fill="#ffffff" fill-opacity="1"><g transform="translate(133.10585, 351.284712)"><g><path d="M 6.546875 -82.171875 L 22.984375 -82.171875 L 22.984375 -46.859375 L 23.765625 -46.859375 C 25.171875 -50.265625 27.207031 -53.078125 29.875 -55.296875 C 32.539062 -57.515625 36.164062 -58.625 40.75 -58.625 C 43.9375 -58.625 46.84375 -58.03125 49.46875 -56.84375 C 52.09375 -55.664062 54.347656 -53.851562 56.234375 -51.40625 C 58.128906 -48.96875 59.613281 -45.859375 60.6875 -42.078125 C 61.757812 -38.304688 62.296875 -33.832031 62.296875 -28.65625 C 62.296875 -23.46875 61.757812 -18.984375 60.6875 -15.203125 C 59.613281 -11.429688 58.128906 -8.320312 56.234375 -5.875 C 54.347656 -3.4375 52.09375 -1.625 49.46875 -0.4375 C 46.84375 0.738281 43.9375 1.328125 40.75 1.328125 C 36.164062 1.328125 32.539062 0.238281 29.875 -1.9375 C 27.207031 -4.125 25.171875 -6.957031 23.765625 -10.4375 L 22.984375 -10.4375 L 22.984375 0 L 6.546875 0 Z M 33.640625 -11.4375 C 37.347656 -11.4375 40.203125 -12.566406 42.203125 -14.828125 C 44.203125 -17.085938 45.203125 -20.210938 45.203125 -24.203125 L 45.203125 -33.09375 C 45.203125 -37.09375 44.203125 -40.21875 42.203125 -42.46875 C 40.203125 -44.726562 37.347656 -45.859375 33.640625 -45.859375 C 30.753906 -45.859375 28.253906 -45.15625 26.140625 -43.75 C 24.035156 -42.34375 22.984375 -40.125 22.984375 -37.09375 L 22.984375 -20.203125 C 22.984375 -17.171875 24.035156 -14.953125 26.140625 -13.546875 C 28.253906 -12.140625 30.753906 -11.4375 33.640625 -11.4375 Z M 33.640625 -11.4375 "/></g></g></g><g fill="#ffffff" fill-opacity="1"><g transform="translate(199.726987, 351.284712)"><g><path d="M 33.3125 1.328125 C 28.875 1.328125 24.875 0.644531 21.3125 -0.71875 C 17.757812 -2.09375 14.742188 -4.070312 12.265625 -6.65625 C 9.785156 -9.25 7.878906 -12.394531 6.546875 -16.09375 C 5.210938 -19.800781 4.546875 -23.988281 4.546875 -28.65625 C 4.546875 -33.3125 5.210938 -37.488281 6.546875 -41.1875 C 7.878906 -44.894531 9.785156 -48.046875 12.265625 -50.640625 C 14.742188 -53.234375 17.757812 -55.210938 21.3125 -56.578125 C 24.875 -57.941406 28.875 -58.625 33.3125 -58.625 C 37.757812 -58.625 41.757812 -57.941406 45.3125 -56.578125 C 48.863281 -55.210938 51.878906 -53.234375 54.359375 -50.640625 C 56.835938 -48.046875 58.742188 -44.894531 60.078125 -41.1875 C 61.410156 -37.488281 62.078125 -33.3125 62.078125 -28.65625 C 62.078125 -23.988281 61.410156 -19.800781 60.078125 -16.09375 C 58.742188 -12.394531 56.835938 -9.25 54.359375 -6.65625 C 51.878906 -4.070312 48.863281 -2.09375 45.3125 -0.71875 C 41.757812 0.644531 37.757812 1.328125 33.3125 1.328125 Z M 33.3125 -10.875 C 37.007812 -10.875 39.894531 -12.019531 41.96875 -14.3125 C 44.039062 -16.613281 45.078125 -19.875 45.078125 -24.09375 L 45.078125 -33.203125 C 45.078125 -37.421875 44.039062 -40.675781 41.96875 -42.96875 C 39.894531 -45.269531 37.007812 -46.421875 33.3125 -46.421875 C 29.613281 -46.421875 26.726562 -45.269531 24.65625 -42.96875 C 22.582031 -40.675781 21.546875 -37.421875 21.546875 -33.203125 L 21.546875 -24.09375 C 21.546875 -19.875 22.582031 -16.613281 24.65625 -14.3125 C 26.726562 -12.019531 29.613281 -10.875 33.3125 -10.875 Z M 33.3125 -10.875 "/></g></g></g><g fill="#ffffff" fill-opacity="1"><g transform="translate(266.348123, 351.284712)"><g><path d="M 8.21875 -12.765625 L 21.4375 -12.765625 L 21.4375 -44.53125 L 8.21875 -44.53125 L 8.21875 -57.296875 L 37.859375 -57.296875 L 37.859375 -41.09375 L 38.640625 -41.09375 C 39.160156 -43.164062 39.882812 -45.179688 40.8125 -47.140625 C 41.738281 -49.097656 42.921875 -50.835938 44.359375 -52.359375 C 45.804688 -53.878906 47.566406 -55.082031 49.640625 -55.96875 C 51.710938 -56.851562 54.15625 -57.296875 56.96875 -57.296875 L 62.40625 -57.296875 L 62.40625 -42.203125 L 50.1875 -42.203125 C 46.113281 -42.203125 43.039062 -41 40.96875 -38.59375 C 38.894531 -36.1875 37.859375 -33.242188 37.859375 -29.765625 L 37.859375 -12.765625 L 56.75 -12.765625 L 56.75 0 L 8.21875 0 Z M 8.21875 -12.765625 "/></g></g></g><g fill="#ffffff" fill-opacity="1"><g transform="translate(332.96926, 351.284712)"><g><path d="M 34.875 1.328125 C 25.25 1.328125 17.953125 -1.332031 12.984375 -6.65625 C 8.023438 -11.988281 5.546875 -19.242188 5.546875 -28.421875 C 5.546875 -33.085938 6.191406 -37.289062 7.484375 -41.03125 C 8.785156 -44.769531 10.640625 -47.953125 13.046875 -50.578125 C 15.453125 -53.210938 18.375 -55.210938 21.8125 -56.578125 C 25.257812 -57.941406 29.128906 -58.625 33.421875 -58.625 C 37.710938 -58.625 41.5625 -57.941406 44.96875 -56.578125 C 48.375 -55.210938 51.257812 -53.269531 53.625 -50.75 C 56 -48.226562 57.832031 -45.171875 59.125 -41.578125 C 60.425781 -37.992188 61.078125 -33.976562 61.078125 -29.53125 L 61.078125 -24.65625 L 21.875 -24.65625 L 21.875 -23.65625 C 21.875 -19.945312 23.019531 -16.960938 25.3125 -14.703125 C 27.613281 -12.453125 30.984375 -11.328125 35.421875 -11.328125 C 38.828125 -11.328125 41.75 -11.972656 44.1875 -13.265625 C 46.632812 -14.566406 48.75 -16.289062 50.53125 -18.4375 L 59.40625 -8.765625 C 57.1875 -6.023438 54.078125 -3.65625 50.078125 -1.65625 C 46.078125 0.332031 41.007812 1.328125 34.875 1.328125 Z M 33.53125 -46.859375 C 29.976562 -46.859375 27.144531 -45.765625 25.03125 -43.578125 C 22.925781 -41.398438 21.875 -38.457031 21.875 -34.75 L 21.875 -33.875 L 44.96875 -33.875 L 44.96875 -34.75 C 44.96875 -38.53125 43.945312 -41.492188 41.90625 -43.640625 C 39.875 -45.785156 37.082031 -46.859375 33.53125 -46.859375 Z M 33.53125 -46.859375 "/></g></g></g><g fill="#ffffff" fill-opacity="1"><g transform="translate(399.590397, 351.284712)"><g><path d="M 43.640625 -10.4375 L 42.859375 -10.4375 C 41.378906 -6.957031 39.328125 -4.125 36.703125 -1.9375 C 34.078125 0.238281 30.46875 1.328125 25.875 1.328125 C 22.6875 1.328125 19.78125 0.738281 17.15625 -0.4375 C 14.53125 -1.625 12.269531 -3.4375 10.375 -5.875 C 8.488281 -8.320312 7.007812 -11.429688 5.9375 -15.203125 C 4.863281 -18.984375 4.328125 -23.46875 4.328125 -28.65625 C 4.328125 -33.832031 4.863281 -38.304688 5.9375 -42.078125 C 7.007812 -45.859375 8.488281 -48.96875 10.375 -51.40625 C 12.269531 -53.851562 14.53125 -55.664062 17.15625 -56.84375 C 19.78125 -58.03125 22.6875 -58.625 25.875 -58.625 C 28.164062 -58.625 30.195312 -58.328125 31.96875 -57.734375 C 33.75 -57.148438 35.320312 -56.335938 36.6875 -55.296875 C 38.0625 -54.265625 39.25 -53.023438 40.25 -51.578125 C 41.25 -50.140625 42.117188 -48.566406 42.859375 -46.859375 L 43.640625 -46.859375 L 43.640625 -82.171875 L 60.078125 -82.171875 L 60.078125 0 L 43.640625 0 Z M 32.984375 -11.4375 C 35.867188 -11.4375 38.363281 -12.140625 40.46875 -13.546875 C 42.582031 -14.953125 43.640625 -17.171875 43.640625 -20.203125 L 43.640625 -37.09375 C 43.640625 -40.125 42.582031 -42.34375 40.46875 -43.75 C 38.363281 -45.15625 35.867188 -45.859375 32.984375 -45.859375 C 29.273438 -45.859375 26.421875 -44.726562 24.421875 -42.46875 C 22.429688 -40.21875 21.4375 -37.09375 21.4375 -33.09375 L 21.4375 -24.203125 C 21.4375 -20.210938 22.429688 -17.085938 24.421875 -14.828125 C 26.421875 -12.566406 29.273438 -11.4375 32.984375 -11.4375 Z M 32.984375 -11.4375 "/></g></g></g><g fill="#ffffff" fill-opacity="1"><g transform="translate(466.211533, 351.284712)"><g><path d="M 33.3125 1.328125 C 28.875 1.328125 24.875 0.644531 21.3125 -0.71875 C 17.757812 -2.09375 14.742188 -4.070312 12.265625 -6.65625 C 9.785156 -9.25 7.878906 -12.394531 6.546875 -16.09375 C 5.210938 -19.800781 4.546875 -23.988281 4.546875 -28.65625 C 4.546875 -33.3125 5.210938 -37.488281 6.546875 -41.1875 C 7.878906 -44.894531 9.785156 -48.046875 12.265625 -50.640625 C 14.742188 -53.234375 17.757812 -55.210938 21.3125 -56.578125 C 24.875 -57.941406 28.875 -58.625 33.3125 -58.625 C 37.757812 -58.625 41.757812 -57.941406 45.3125 -56.578125 C 48.863281 -55.210938 51.878906 -53.234375 54.359375 -50.640625 C 56.835938 -48.046875 58.742188 -44.894531 60.078125 -41.1875 C 61.410156 -37.488281 62.078125 -33.3125 62.078125 -28.65625 C 62.078125 -23.988281 61.410156 -19.800781 60.078125 -16.09375 C 58.742188 -12.394531 56.835938 -9.25 54.359375 -6.65625 C 51.878906 -4.070312 48.863281 -2.09375 45.3125 -0.71875 C 41.757812 0.644531 37.757812 1.328125 33.3125 1.328125 Z M 33.3125 -10.875 C 37.007812 -10.875 39.894531 -12.019531 41.96875 -14.3125 C 44.039062 -16.613281 45.078125 -19.875 45.078125 -24.09375 L 45.078125 -33.203125 C 45.078125 -37.421875 44.039062 -40.675781 41.96875 -42.96875 C 39.894531 -45.269531 37.007812 -46.421875 33.3125 -46.421875 C 29.613281 -46.421875 26.726562 -45.269531 24.65625 -42.96875 C 22.582031 -40.675781 21.546875 -37.421875 21.546875 -33.203125 L 21.546875 -24.09375 C 21.546875 -19.875 22.582031 -16.613281 24.65625 -14.3125 C 26.726562 -12.019531 29.613281 -10.875 33.3125 -10.875 Z M 33.3125 -10.875 "/></g></g></g><g fill="#ffffff" fill-opacity="1"><g transform="translate(66.484713, 458.534708)"><g><path d="M 3.328125 0 L 3.328125 -57.296875 L 16.546875 -57.296875 L 16.546875 -48.859375 L 17.328125 -48.859375 C 18.210938 -51.523438 19.488281 -53.816406 21.15625 -55.734375 C 22.820312 -57.660156 25.171875 -58.625 28.203125 -58.625 C 33.753906 -58.625 37.160156 -55.367188 38.421875 -48.859375 L 39.09375 -48.859375 C 39.53125 -50.191406 40.082031 -51.445312 40.75 -52.625 C 41.414062 -53.8125 42.226562 -54.847656 43.1875 -55.734375 C 44.15625 -56.628906 45.304688 -57.332031 46.640625 -57.84375 C 47.972656 -58.363281 49.523438 -58.625 51.296875 -58.625 C 59.296875 -58.625 63.296875 -52.738281 63.296875 -40.96875 L 63.296875 0 L 50.078125 0 L 50.078125 -39.3125 C 50.078125 -41.976562 49.613281 -43.847656 48.6875 -44.921875 C 47.769531 -45.992188 46.566406 -46.53125 45.078125 -46.53125 C 43.671875 -46.53125 42.46875 -46.066406 41.46875 -45.140625 C 40.476562 -44.210938 39.984375 -42.785156 39.984375 -40.859375 L 39.984375 0 L 26.65625 0 L 26.65625 -39.3125 C 26.65625 -41.976562 26.226562 -43.847656 25.375 -44.921875 C 24.519531 -45.992188 23.351562 -46.53125 21.875 -46.53125 C 20.394531 -46.53125 19.132812 -46.066406 18.09375 -45.140625 C 17.0625 -44.210938 16.546875 -42.785156 16.546875 -40.859375 L 16.546875 0 Z M 3.328125 0 "/></g></g></g><g fill="#ffffff" fill-opacity="1"><g transform="translate(133.10585, 458.534708)"><g><path d="M 30.65625 -26.984375 L 24.3125 -54.96875 L 24.3125 -77.515625 L 42.3125 -77.515625 L 42.3125 -54.96875 L 35.984375 -26.984375 Z M 33.3125 1.328125 C 29.3125 1.328125 26.5 0.476562 24.875 -1.21875 C 23.25 -2.925781 22.4375 -4.960938 22.4375 -7.328125 L 22.4375 -10.875 C 22.4375 -13.175781 23.265625 -15.175781 24.921875 -16.875 C 26.585938 -18.582031 29.382812 -19.4375 33.3125 -19.4375 C 37.238281 -19.4375 40.035156 -18.582031 41.703125 -16.875 C 43.367188 -15.175781 44.203125 -13.175781 44.203125 -10.875 L 44.203125 -7.328125 C 44.203125 -4.960938 43.382812 -2.925781 41.75 -1.21875 C 40.125 0.476562 37.3125 1.328125 33.3125 1.328125 Z M 33.3125 1.328125 "/></g></g></g><g fill="#ffffff" fill-opacity="1"><g transform="translate(199.726987, 458.534708)"><g><path d="M 6.890625 -40.09375 L 6.890625 -53.1875 L 59.75 -53.1875 L 59.75 -40.09375 Z M 6.890625 -14.546875 L 6.890625 -27.65625 L 59.75 -27.65625 L 59.75 -14.546875 Z M 6.890625 -14.546875 "/></g></g></g><g fill="#ffffff" fill-opacity="1"><g transform="translate(266.348123, 458.534708)"><g><path d="M 33.3125 1.328125 C 22.945312 1.328125 15.300781 -2.1875 10.375 -9.21875 C 5.457031 -16.25 3 -26.09375 3 -38.75 C 3 -51.414062 5.457031 -61.265625 10.375 -68.296875 C 15.300781 -75.328125 22.945312 -78.84375 33.3125 -78.84375 C 43.675781 -78.84375 51.316406 -75.328125 56.234375 -68.296875 C 61.160156 -61.265625 63.625 -51.414062 63.625 -38.75 C 63.625 -26.09375 61.160156 -16.25 56.234375 -9.21875 C 51.316406 -2.1875 43.675781 1.328125 33.3125 1.328125 Z M 33.3125 -11.765625 C 38.269531 -11.765625 41.726562 -13.503906 43.6875 -16.984375 C 45.65625 -20.460938 46.640625 -25.3125 46.640625 -31.53125 L 46.640625 -45.96875 C 46.640625 -52.1875 45.65625 -57.035156 43.6875 -60.515625 C 41.726562 -63.992188 38.269531 -65.734375 33.3125 -65.734375 C 28.351562 -65.734375 24.890625 -63.992188 22.921875 -60.515625 C 20.960938 -57.035156 19.984375 -52.1875 19.984375 -45.96875 L 19.984375 -31.53125 C 19.984375 -25.3125 20.960938 -20.460938 22.921875 -16.984375 C 24.890625 -13.503906 28.351562 -11.765625 33.3125 -11.765625 Z M 33.3125 -32.203125 C 30.71875 -32.203125 28.921875 -32.71875 27.921875 -33.75 C 26.921875 -34.789062 26.421875 -36.050781 26.421875 -37.53125 L 26.421875 -39.984375 C 26.421875 -41.460938 26.921875 -42.71875 27.921875 -43.75 C 28.921875 -44.789062 30.71875 -45.3125 33.3125 -45.3125 C 35.90625 -45.3125 37.703125 -44.789062 38.703125 -43.75 C 39.703125 -42.71875 40.203125 -41.460938 40.203125 -39.984375 L 40.203125 -37.53125 C 40.203125 -36.050781 39.703125 -34.789062 38.703125 -33.75 C 37.703125 -32.71875 35.90625 -32.203125 33.3125 -32.203125 Z M 33.3125 -32.203125 "/></g></g></g><g fill="#ffffff" fill-opacity="1"><g transform="translate(332.96926, 458.534708)"><g><path d="M 47.3125 -34.53125 C 47.3125 -29.125 46.695312 -23.921875 45.46875 -18.921875 C 44.25 -13.929688 42.582031 -9.289062 40.46875 -5 C 38.363281 -0.707031 35.90625 3.175781 33.09375 6.65625 C 30.28125 10.132812 27.316406 13.023438 24.203125 15.328125 L 7.765625 15.328125 C 11.171875 12.953125 14.445312 10.191406 17.59375 7.046875 C 20.75 3.898438 23.488281 0.441406 25.8125 -3.328125 C 28.144531 -7.109375 30.015625 -11.144531 31.421875 -15.4375 C 32.828125 -19.726562 33.53125 -24.207031 33.53125 -28.875 L 33.53125 -40.203125 C 33.53125 -44.859375 32.828125 -49.332031 31.421875 -53.625 C 30.015625 -57.925781 28.144531 -61.960938 25.8125 -65.734375 C 23.488281 -69.515625 20.75 -72.976562 17.59375 -76.125 C 14.445312 -79.269531 11.171875 -82.023438 7.765625 -84.390625 L 24.203125 -84.390625 C 27.316406 -82.023438 30.28125 -79.117188 33.09375 -75.671875 C 35.90625 -72.234375 38.363281 -68.367188 40.46875 -64.078125 C 42.582031 -59.785156 44.25 -55.140625 45.46875 -50.140625 C 46.695312 -45.140625 47.3125 -39.9375 47.3125 -34.53125 Z M 47.3125 -34.53125 "/></g></g></g><g fill="#ffffff" fill-opacity="1"><g transform="translate(399.590397, 458.534708)"><g><path d="M 33.3125 1.328125 C 29.164062 1.328125 26.1875 0.421875 24.375 -1.390625 C 22.5625 -3.203125 21.65625 -5.367188 21.65625 -7.890625 L 21.65625 -11.765625 C 21.65625 -14.285156 22.5625 -16.453125 24.375 -18.265625 C 26.1875 -20.078125 29.164062 -20.984375 33.3125 -20.984375 C 37.457031 -20.984375 40.4375 -20.078125 42.25 -18.265625 C 44.0625 -16.453125 44.96875 -14.285156 44.96875 -11.765625 L 44.96875 -7.890625 C 44.96875 -5.367188 44.0625 -3.203125 42.25 -1.390625 C 40.4375 0.421875 37.457031 1.328125 33.3125 1.328125 Z M 33.3125 -36.3125 C 29.164062 -36.3125 26.1875 -37.21875 24.375 -39.03125 C 22.5625 -40.84375 21.65625 -43.007812 21.65625 -45.53125 L 21.65625 -49.40625 C 21.65625 -51.925781 22.5625 -54.09375 24.375 -55.90625 C 26.1875 -57.71875 29.164062 -58.625 33.3125 -58.625 C 37.457031 -58.625 40.4375 -57.71875 42.25 -55.90625 C 44.0625 -54.09375 44.96875 -51.925781 44.96875 -49.40625 L 44.96875 -45.53125 C 44.96875 -43.007812 44.0625 -40.84375 42.25 -39.03125 C 40.4375 -37.21875 37.457031 -36.3125 33.3125 -36.3125 Z M 33.3125 -36.3125 "/></g></g></g></svg>